# xmcd
#
# Track frame offsets:
#	150
#	12422
#	23370
#	35265
#	47465
#	59285
#	72515
#	85632
#	99390
#	111495
#	122950
#	134537
#	148522
#	162702
#	176460
#	190555
#	203285
#	214762
#	233212
#	242767
#
# Disc length: 3447 seconds
#
# Revision: 1
# Processed by: cddbd v1.4PL0 Copyright (c) Steve Scherf et al.
# Submitted via: audiograbber 1.81.02
#
DISCID=0e0d7514
DTITLE=Hank Snow - The Singing Ranger, Vol.3 (03)
DYEAR=1900
DGENRE=
TTITLE0=The Man Who Robbed The Bank At  Santa Fe
TTITLE1=The Man Behind The Gun
TTITLE2=The Restless Kind
TTITLE3=Call Of The Wild
TTITLE4=(Town Of) Laredo
TTITLE5=Way Out There
TTITLE6=Patanio, The Pride Of The Plains
TTITLE7=The Queen Of Draw Poker Town
TTITLE8=On The Rythm Range
TTITLE9=Chant Of The Wanderer
TTITLE10=The Wayward Wind
TTITLE11=Following The Sun All Day
TTITLE12=The Texas Plains
TTITLE13=Patanio, The Pride Of The Plains
TTITLE14=Teardrops In My Heart
TTITLE15=Tumbling Tumbleweed
TTITLE16=Heart Break Trail
TTITLE17=Cool Water
TTITLE18=Ridin' Home
TTITLE19=At The Rainbow's End
EXTD=
EXTT0=
EXTT1=
EXTT2=
EXTT3=
EXTT4=
EXTT5=
EXTT6=
EXTT7=
EXTT8=
EXTT9=
EXTT10=
EXTT11=
EXTT12=
EXTT13=
EXTT14=
EXTT15=
EXTT16=
EXTT17=
EXTT18=
EXTT19=
PLAYORDER=
